<svg width="25" height="24" viewBox="0 0 25 24" fill="none" xmlns="http://www.w3.org/2000/svg"><path d="M25 9.58333C25 5 19.5833 0 12.5 0C5.59896 0 0 4.0625 0 9.58333C0 14.6771 4.36458 18.8854 10.5052 19.5052C10.6923 19.5206 10.8734 19.5784 11.0349 19.674C11.1964 19.7696 11.334 19.9007 11.4375 20.0573C11.585 20.2894 11.6644 20.5583 11.6667 20.8333C11.6523 21.3984 11.5896 21.9612 11.4792 22.5156C11.4622 22.5908 11.4663 22.6691 11.4912 22.7421C11.516 22.815 11.5606 22.8796 11.62 22.9287C11.6793 22.9778 11.7511 23.0095 11.8274 23.0202C11.9037 23.031 11.9815 23.0204 12.0521 22.9896C14.9948 21.6875 25 16.3333 25 9.58333Z" fill="white"></path><path d="M7.91675 11.875H6.04175V7.5C6.04175 7.33424 5.9759 7.17527 5.85869 7.05806C5.74148 6.94085 5.58251 6.875 5.41675 6.875C5.25099 6.875 5.09202 6.94085 4.97481 7.05806C4.8576 7.17527 4.79175 7.33424 4.79175 7.5V12.5C4.79175 12.6658 4.8576 12.8247 4.97481 12.9419C5.09202 13.0592 5.25099 13.125 5.41675 13.125H7.91675C8.08251 13.125 8.24148 13.0592 8.35869 12.9419C8.4759 12.8247 8.54175 12.6658 8.54175 12.5C8.54175 12.3342 8.4759 12.1753 8.35869 12.0581C8.24148 11.9408 8.08251 11.875 7.91675 11.875V11.875Z" fill="#00CF2E"></path><path d="M9.58325 6.875C9.41749 6.875 9.25852 6.94085 9.14131 7.05806C9.0241 7.17527 8.95825 7.33424 8.95825 7.5V12.5C8.95825 12.6658 9.0241 12.8247 9.14131 12.9419C9.25852 13.0592 9.41749 13.125 9.58325 13.125C9.74901 13.125 9.90798 13.0592 10.0252 12.9419C10.1424 12.8247 10.2083 12.6658 10.2083 12.5V7.5C10.2083 7.33424 10.1424 7.17527 10.0252 7.05806C9.90798 6.94085 9.74901 6.875 9.58325 6.875V6.875Z" fill="#00CF2E"></path><path d="M15.4167 6.875C15.3346 6.875 15.2533 6.89117 15.1775 6.92258C15.1017 6.95398 15.0328 7.00002 14.9747 7.05806C14.9167 7.1161 14.8707 7.18499 14.8392 7.26082C14.8078 7.33665 14.7917 7.41792 14.7917 7.5V10.625L12.1875 7.125C12.1088 7.02006 11.9991 6.94254 11.8739 6.90343C11.7486 6.86432 11.6143 6.86559 11.4899 6.90707C11.3654 6.94855 11.2572 7.02814 11.1805 7.13456C11.1038 7.24097 11.0625 7.36882 11.0625 7.5V12.5C11.0891 12.6436 11.1651 12.7734 11.2773 12.8668C11.3896 12.9602 11.531 13.0114 11.6771 13.0114C11.8231 13.0114 11.9646 12.9602 12.0768 12.8668C12.1891 12.7734 12.2651 12.6436 12.2917 12.5V9.375L14.8958 12.875C14.9558 12.9558 15.0346 13.0208 15.1253 13.0644C15.2161 13.108 15.3161 13.1288 15.4167 13.125C15.4839 13.1248 15.5506 13.1142 15.6146 13.0937C15.7391 13.0522 15.8474 12.9724 15.924 12.8659C16.0007 12.7593 16.0419 12.6313 16.0417 12.5V7.5C16.0417 7.41792 16.0255 7.33665 15.9941 7.26082C15.9627 7.18499 15.9166 7.1161 15.8586 7.05806C15.8006 7.00002 15.7317 6.95398 15.6558 6.92258C15.58 6.89117 15.4987 6.875 15.4167 6.875V6.875Z" fill="#00CF2E"></path><path d="M20 10.625C20.0821 10.625 20.1633 10.6088 20.2392 10.5774C20.315 10.546 20.3839 10.5 20.4419 10.4419C20.5 10.3839 20.546 10.315 20.5774 10.2392C20.6088 10.1633 20.625 10.0821 20.625 10C20.625 9.91792 20.6088 9.83665 20.5774 9.76082C20.546 9.68499 20.5 9.61609 20.4419 9.55806C20.3839 9.50002 20.315 9.45398 20.2392 9.42257C20.1633 9.39117 20.0821 9.375 20 9.375H18.125V8.125H20C20.1658 8.125 20.3247 8.05915 20.4419 7.94194C20.5592 7.82473 20.625 7.66576 20.625 7.5C20.625 7.33424 20.5592 7.17527 20.4419 7.05806C20.3247 6.94085 20.1658 6.875 20 6.875H17.5C17.3342 6.875 17.1753 6.94085 17.0581 7.05806C16.9408 7.17527 16.875 7.33424 16.875 7.5V12.5C16.875 12.6658 16.9408 12.8247 17.0581 12.9419C17.1753 13.0592 17.3342 13.125 17.5 13.125H20C20.1658 13.125 20.3247 13.0592 20.4419 12.9419C20.5592 12.8247 20.625 12.6658 20.625 12.5C20.625 12.3342 20.5592 12.1753 20.4419 12.0581C20.3247 11.9408 20.1658 11.875 20 11.875H18.125V10.625H20Z" fill="#00CF2E"></path></svg>